<svg width="30" height="30" viewBox="0 0 30 30" fill="none" xmlns="http://www.w3.org/2000/svg">
<g id="truck-check_14703184 2">
<path id="Vector" d="M24.375 7.5H21.25V6.875C21.25 3.77375 18.7262 1.25 15.625 1.25H5.625C2.52375 1.25 0 3.77375 0 6.875V19.375C0 21.2488 1.19 22.8387 2.85 23.46C2.62625 23.9438 2.5 24.4625 2.5 25C2.5 27.0675 4.1825 28.75 6.25 28.75C8.3175 28.75 10 27.0675 10 25C10 24.5688 9.92 24.15 9.775 23.75H20.2238C20.0788 24.15 19.9987 24.5688 19.9987 25C19.9987 27.0675 21.6813 28.75 23.7488 28.75C25.8162 28.75 27.4988 27.0675 27.4988 25C27.4988 24.4625 27.3725 23.9438 27.1488 23.46C28.8088 22.8375 29.9988 21.2488 29.9988 19.375V13.125C29.9988 10.0238 27.4762 7.5 24.375 7.5ZM24.375 8.75C26.7875 8.75 28.75 10.7125 28.75 13.125V15H21.25V8.75H24.375ZM1.25 19.375V6.875C1.25 4.4625 3.2125 2.5 5.625 2.5H15.625C18.0375 2.5 20 4.4625 20 6.875V22.5H4.375C2.65125 22.5 1.25 21.0987 1.25 19.375ZM8.75 25C8.75 26.3787 7.62875 27.5 6.25 27.5C4.87125 27.5 3.75 26.3787 3.75 25C3.75 24.5475 3.9025 24.1188 4.1425 23.7263C4.22125 23.73 4.295 23.75 4.375 23.75H8.37C8.60125 24.1362 8.75 24.5562 8.75 25ZM26.25 25C26.25 26.3787 25.1287 27.5 23.75 27.5C22.3713 27.5 21.25 26.3787 21.25 25C21.25 24.5562 21.3988 24.1362 21.63 23.75H25.625C25.705 23.75 25.7788 23.7313 25.8575 23.7263C26.0975 24.1188 26.25 24.5475 26.25 25ZM25.625 22.5H21.25V16.25H28.75V19.375C28.75 21.0987 27.3487 22.5 25.625 22.5Z" fill="#212020"/>
</g>
</svg>
