<svg width="21" height="21" viewBox="0 0 21 21" fill="none" xmlns="http://www.w3.org/2000/svg">
<g id="vision-target_17383938 1" clip-path="url(#clip0_9719_2351)">
<path id="Vector" d="M20.1712 12.7238C21.2763 11.4559 21.2763 9.545 20.1712 8.2781C19.1207 7.07423 15.3189 3.14746 10.5013 3.14746C5.68372 3.14746 1.88092 7.07423 0.830419 8.27705C-0.276806 9.545 -0.276806 11.4559 0.830419 12.7228C1.88092 13.9266 5.68267 17.8534 10.5003 17.8534C15.3179 17.8534 19.1207 13.9266 20.1712 12.7228V12.7238ZM10.5003 16.8039C7.02416 16.8039 3.63525 14.3395 1.62145 12.0326C0.858783 11.1596 0.858783 9.84229 1.62145 8.96828C3.6342 6.66243 7.02311 4.19796 10.4992 4.19796C13.9753 4.19796 17.3653 6.66243 19.378 8.96828C20.1407 9.84229 20.1407 11.1596 19.378 12.0336C17.3642 14.3395 13.9753 16.8039 10.4992 16.8039H10.5003ZM10.5003 7.34946C8.76274 7.34946 7.34877 8.76343 7.34877 10.501C7.34877 12.2385 8.76274 13.6525 10.5003 13.6525C12.2378 13.6525 13.6518 12.2385 13.6518 10.501C13.6518 8.76343 12.2378 7.34946 10.5003 7.34946ZM10.5003 12.602C9.34156 12.602 8.39926 11.6597 8.39926 10.501C8.39926 9.34225 9.34156 8.39996 10.5003 8.39996C11.659 8.39996 12.6013 9.34225 12.6013 10.501C12.6013 11.6597 11.659 12.602 10.5003 12.602Z" fill="#212020"/>
</g>
<defs>
<clipPath id="clip0_9719_2351">
<rect width="21" height="21" fill="white"/>
</clipPath>
</defs>
</svg>
