<svg width="25" height="21" viewBox="0 0 25 21" fill="none" xmlns="http://www.w3.org/2000/svg">
<g id="icon">
<g id="Vector">
<path d="M14.08 6.82844C14.2635 6.64688 14.2654 6.35019 14.0838 6.16676C13.9032 5.98238 13.6065 5.98145 13.4221 6.16301L9.36026 10.1818C8.83709 10.6994 7.98822 10.6984 7.46785 10.1818L5.47624 8.21359C5.29187 8.03108 4.99518 8.03483 4.81455 8.21733C4.63299 8.4017 4.63486 8.69745 4.8183 8.87902L6.80991 10.8472C7.25259 11.2843 7.83286 11.5033 8.41406 11.5033C8.99526 11.5033 9.57646 11.2843 10.0191 10.8463L14.081 6.82751L14.08 6.82844Z" fill="#212020"/>
<path d="M24.33 14.9166V18.6602C24.33 19.9508 23.2809 21 21.9903 21H15.5521C13.7739 21 12.2297 19.7337 11.8806 17.9901L11.291 15.9742C11.1159 15.1075 11.3284 14.2587 11.8637 13.6054C12.3991 12.9521 13.1908 12.5768 14.035 12.5768H17.014L16.4712 9.52109C16.4637 9.46025 16.4534 9.00072 16.4647 8.96141C16.5779 8.54587 16.8409 8.2183 17.2059 8.03955C17.5737 7.85891 17.9995 7.8533 18.4039 8.02083C18.6425 8.12003 18.8746 8.36524 19.0421 8.69374L21.0946 12.5759H21.9893C23.2799 12.5759 24.3291 13.625 24.3291 14.9157L24.33 14.9166ZM20.6257 13.3845C20.4769 13.2984 20.3524 13.173 20.2682 13.0148L18.212 9.12613C18.1156 8.93614 18.0276 8.87718 18.0276 8.87718C17.8938 8.82196 17.7422 8.82009 17.6177 8.87999C17.5147 8.93053 17.4352 9.02412 17.3875 9.14672L17.4006 9.41907L17.9359 12.414C17.9855 12.6863 17.9116 12.9652 17.7328 13.1777C17.5522 13.392 17.2911 13.5127 17.014 13.5127H14.035C13.4716 13.5127 12.9447 13.7626 12.5872 14.1978C12.2297 14.633 12.0883 15.2002 12.1988 15.7514L12.7884 17.7674C13.0589 19.1132 14.2175 20.0632 15.5512 20.0632H20.5883L20.6248 13.3836L20.6257 13.3845ZM23.3941 14.9166C23.3941 14.1426 22.7643 13.5127 21.9903 13.5127H21.5607L21.5251 20.0641H21.9903C22.7643 20.0641 23.3941 19.4342 23.3941 18.6602V14.9166Z" fill="#212020"/>
<path d="M7.5147 18.367C7.45727 18.5792 7.26804 18.7182 7.06092 18.7182C2.82437 17.6066 0 13.8016 0 9.51707C0 4.26936 4.22337 0 9.41456 0C14.0738 0 17.9846 3.37094 18.7124 8.01527C18.7529 8.27414 18.5768 8.51873 18.3207 8.55965C18.0684 8.59867 17.8236 8.42451 17.7822 8.16374C17.1279 3.9848 13.6078 0.951707 9.41456 0.951707C4.74211 0.951707 0.941456 4.7947 0.941456 9.51707C0.941456 13.3734 3.50881 16.7719 7.18425 17.7836C7.43562 17.8521 7.58248 18.1148 7.5147 18.367Z" fill="#212020"/>
<path d="M12.2658 18.1766C12.3222 18.3891 12.2278 18.604 12.0484 18.7076C7.82369 19.8632 3.47525 17.9802 1.33296 14.2697C-1.29089 9.72502 0.231975 3.91597 4.72767 1.32037C8.76272 -1.00926 13.835 -0.0453387 16.7875 3.61289C16.9519 3.81684 16.9218 4.11668 16.7205 4.28016C16.5215 4.44011 16.2224 4.41167 16.0561 4.20655C13.4 0.914634 8.83498 0.0479532 5.20353 2.14457C1.15707 4.4808 -0.212897 9.70925 2.14829 13.7989C4.07644 17.1386 7.99911 18.7982 11.688 17.8366C11.9399 17.7702 12.1984 17.9243 12.2658 18.1766Z" fill="#212020"/>
</g>
</g>
</svg>
