<svg width="31" height="31" viewBox="0 0 31 31" fill="none" xmlns="http://www.w3.org/2000/svg">
<g id="icon">
<g id="Vector">
<path fill-rule="evenodd" clip-rule="evenodd" d="M22.0824 30.9998C22.4408 30.9998 22.7318 30.7089 22.7318 30.3504C22.7318 29.992 22.4408 29.6998 22.0824 29.6998H11.6922C9.18552 29.6998 7.14643 27.6607 7.14643 25.154V11.0559L5.84766 11.3219V25.1553C5.84766 28.3776 8.46989 30.9998 11.6922 30.9998H22.0824ZM11.6922 1.9707V3.26948H20.7836C23.2903 3.26948 25.3293 5.30856 25.3293 7.81521V15.6079C25.3293 15.9663 25.6203 16.2573 25.9787 16.2573C26.3372 16.2573 26.6281 15.9663 26.6281 15.6079V7.81521C26.6281 4.59294 24.0059 1.9707 20.7836 1.9707H11.6922ZM14.2897 20.1549C14.6482 20.1549 14.9391 19.864 14.9391 19.5055C14.9391 19.147 14.6482 18.8561 14.2897 18.8561H11.6922C11.3337 18.8561 11.0428 19.147 11.0428 19.5055C11.0428 19.864 11.3337 20.1549 11.6922 20.1549H14.2897ZM20.7836 20.1549C21.1421 20.1549 21.433 19.864 21.433 19.5055C21.433 19.147 21.1421 18.8561 20.7836 18.8561H18.1861C17.8276 18.8561 17.5367 19.147 17.5367 19.5055C17.5367 19.864 17.8276 20.1549 18.1861 20.1549H20.7836ZM14.2897 25.35C14.6482 25.35 14.9391 25.0591 14.9391 24.7006C14.9391 24.3422 14.6482 24.0512 14.2897 24.0512H11.6922C11.3337 24.0512 11.0428 24.3422 11.0428 24.7006C11.0428 25.0591 11.3337 25.35 11.6922 25.35H14.2897ZM14.2897 9.76337C14.6482 9.76337 14.9391 9.47245 14.9391 9.11398C14.9391 8.75552 14.6482 8.46459 14.2897 8.46459H11.6922C11.3337 8.46459 11.0428 8.75552 11.0428 9.11398C11.0428 9.47245 11.3337 9.76337 11.6922 9.76337H14.2897ZM20.7836 9.76337C21.1421 9.76337 21.433 9.47245 21.433 9.11398C21.433 8.75552 21.1421 8.46459 20.7836 8.46459H18.1861C17.8276 8.46459 17.5367 8.75552 17.5367 9.11398C17.5367 9.47245 17.8276 9.76337 18.1861 9.76337H20.7836ZM14.2897 14.9585C14.6482 14.9585 14.9391 14.6676 14.9391 14.3091C14.9391 13.9506 14.6482 13.6597 14.2897 13.6597H11.6922C11.3337 13.6597 11.0428 13.9506 11.0428 14.3091C11.0428 14.6676 11.3337 14.9585 11.6922 14.9585H14.2897ZM20.7836 14.9585C21.1421 14.9585 21.433 14.6676 21.433 14.3091C21.433 13.9506 21.1421 13.6597 20.7836 13.6597H18.1861C17.8276 13.6597 17.5367 13.9506 17.5367 14.3091C17.5367 14.6676 17.8276 14.9585 18.1861 14.9585H20.7836Z" fill="#212020"/>
<path d="M11.6922 3.26948V1.9707C11.0395 1.9707 10.4114 2.0783 9.82471 2.27668L10.3719 3.46493C10.7899 3.33785 11.2332 3.26948 11.6922 3.26948Z" fill="#212020"/>
<path d="M22.7318 30.3504C22.7318 30.7089 22.4408 30.9998 22.0824 30.9998H25.5891L24.4943 29.9789C24.302 29.7995 24.0487 29.6998 23.7857 29.6998H22.0824C22.4408 29.6998 22.7318 29.992 22.7318 30.3504Z" fill="#212020"/>
<path d="M26.6281 15.6079C26.6281 15.9663 26.3372 16.2573 25.9787 16.2573C25.6203 16.2573 25.3293 15.9663 25.3293 15.6079V20.2854H26.6281V15.6079Z" fill="#212020"/>
</g>
<g id="Vector_2">
<path fill-rule="evenodd" clip-rule="evenodd" d="M29.335 21.0961C28.3455 20.1112 27.0311 19.5684 25.632 19.5684C24.7904 19.5684 23.9791 19.7644 23.2509 20.1352C22.9139 20.3068 22.5947 20.5158 22.2984 20.76C22.1705 20.8655 22.0469 20.9776 21.9279 21.0961C20.9383 22.0818 20.3936 23.3924 20.3936 24.7868C20.3936 26.1811 20.9383 27.4907 21.9422 28.4898L23.6331 30.0452L23.8195 30.2166C24.3071 30.6909 24.951 30.9976 25.632 30.9976C26.313 30.9976 26.9568 30.6909 27.434 30.2261L29.335 28.4765C30.3246 27.4907 30.8694 26.1802 30.8694 24.7858C30.8694 23.3914 30.3246 22.0818 29.335 21.0961ZM26.7796 29.5347L28.6769 27.7888L28.676 27.7879C29.4712 26.9955 29.917 25.9249 29.917 24.7858C29.917 23.6467 29.4722 22.5762 28.6626 21.7704C27.854 20.9646 26.7777 20.5208 25.632 20.5208C24.4862 20.5208 23.4099 20.9646 22.6004 21.7704C21.7917 22.5762 21.346 23.6467 21.346 24.7858C21.346 25.9249 21.7908 26.9955 22.6004 27.8012L24.4738 29.5251C25.111 30.1452 26.1634 30.1357 26.7796 29.5347Z" fill="#212020"/>
<path fill-rule="evenodd" clip-rule="evenodd" d="M25.632 22.9019C24.5814 22.9019 23.7271 23.7562 23.7271 24.8068C23.7271 25.8573 24.5814 26.7116 25.632 26.7116C26.6825 26.7116 27.5368 25.8573 27.5368 24.8068C27.5368 23.7562 26.6825 22.9019 25.632 22.9019ZM24.6795 24.8068C24.6795 25.3316 25.1072 25.7592 25.632 25.7592C26.1568 25.7592 26.5844 25.3316 26.5844 24.8068C26.5844 24.282 26.1568 23.8543 25.632 23.8543C25.1072 23.8543 24.6795 24.282 24.6795 24.8068Z" fill="#212020"/>
</g>
<path id="Vector_3" d="M6.17606 1.00086C6.17047 1.00086 6.16488 1 6.1593 1C6.15715 1 6.15543 1 6.15328 1C6.15242 1 6.15199 1 6.15113 1C3.31007 1.00473 1 3.31738 1 6.1593C1 9.00121 3.31437 11.3186 6.1593 11.3186C9.00422 11.3186 11.3186 9.00422 11.3186 6.1593C11.3186 3.31437 9.01325 1.00989 6.17606 1.00086ZM10.3667 4.00959H8.29696C7.83822 2.86208 7.13096 1.95404 6.69285 1.46219C8.29825 1.64319 9.65988 2.6312 10.3671 4.00959H10.3667ZM8.309 6.1593C8.309 6.76422 8.18346 7.34292 7.99471 7.87906H4.32388C4.13513 7.34292 4.00959 6.76422 4.00959 6.1593C4.00959 5.55437 4.13513 4.97524 4.32345 4.43953H7.99471C8.18346 4.97567 8.309 5.55437 8.309 6.1593ZM7.82661 8.309C7.29821 9.52917 6.48691 10.4544 6.1593 10.7975C5.83168 10.4544 5.02038 9.52917 4.49198 8.309H7.82618H7.82661ZM4.49155 4.00959C5.01995 2.78813 5.83168 1.86332 6.1593 1.52066C6.48691 1.86375 7.29821 2.78899 7.82661 4.00959H4.49155ZM5.62488 1.46219C5.18419 1.95662 4.47779 2.86552 4.0212 4.00959H1.95189C2.65914 2.63163 4.01991 1.64405 5.62488 1.46219ZM1.75842 4.43953H3.86685C3.69358 4.97567 3.57965 5.55265 3.57965 6.1593C3.57965 6.76594 3.69358 7.34249 3.86728 7.87906H1.75842C1.54904 7.34507 1.42994 6.76637 1.42994 6.1593C1.42994 5.55222 1.54904 4.97352 1.75842 4.43953ZM1.95189 8.309H4.02206C4.4808 9.45651 5.18806 10.3646 5.62617 10.8564C4.02077 10.6754 2.65914 9.68739 1.95189 8.309ZM6.69242 10.8564C7.13053 10.3646 7.83779 9.45609 8.29653 8.309H10.3663C9.65902 9.68739 8.29782 10.6754 6.69242 10.8564ZM10.5602 7.87906H8.45131C8.62501 7.34249 8.73894 6.76594 8.73894 6.1593C8.73894 5.55265 8.62501 4.9761 8.45131 4.43953H10.5602C10.7696 4.97352 10.8886 5.55222 10.8886 6.1593C10.8886 6.76637 10.7696 7.34507 10.5602 7.87906Z" fill="#212020" stroke="#212020" stroke-width="0.343953"/>
</g>
</svg>
