<svg width="78" height="97" viewBox="0 0 78 97" fill="none" xmlns="http://www.w3.org/2000/svg">
<rect width="78" height="97" fill="#E5E5E5"/>
<g id="Final_variant">
<rect width="1840" height="7956" transform="translate(-1162 -4712)" fill="#9EDBFF"/>
<g id="Final_variant_2">
<g id="Frame 1171275321">
<rect width="1440" height="504" transform="translate(-962 -220)" fill="#FDFCFC"/>
<g id="block">
<rect x="-882" y="-140" width="1280" height="344" rx="8" fill="#D0F065"/>
<g id="Frame 1171275289">
<g id="Frame">
<g id="Rectangle" filter="url(#filter0_b_8379_32)">
<mask id="path-2-inside-1_8379_32" fill="white">
<rect x="-37.6816" y="-58.7725" width="151.467" height="181.545" rx="4"/>
</mask>
<rect x="-37.6816" y="-58.7725" width="151.467" height="181.545" rx="4" fill="white" fill-opacity="0.05"/>
<rect x="-37.6816" y="-58.7725" width="151.467" height="181.545" rx="4" stroke="white" stroke-opacity="0.99" stroke-width="12.8908" mask="url(#path-2-inside-1_8379_32)"/>
</g>
<g id="Frame_2">
<path id="Vector" d="M0.00292969 79.9539L31.4309 96.9241L53.0466 85.2482L21.6286 68.2686L0.00292969 79.9539Z" fill="black" fill-opacity="0.15"/>
<path id="Vector_2" d="M39.1052 43.6963L17.4678 56.5656L39.5949 69.6594L61.2324 56.8649L39.1052 43.6963Z" fill="#F6F3E3"/>
<path id="Vector_3" d="M39.1074 43.6963V66.9284L41.828 68.3687L61.2618 56.8555L39.1074 43.6963Z" fill="white"/>
<path id="Vector_4" d="M39.598 70.0988V92.91L29.8403 87.1488L25.8864 84.8106L16.8633 79.4796V56.5654L25.8864 61.9432L29.8403 64.2908L39.598 70.0988Z" fill="#D6D1B7"/>
<path id="Vector_5" d="M39.5981 70.1116V92.9135L61.8251 79.7542V56.8682L39.5981 70.1116Z" fill="#FAF8EE"/>
<path id="Vector_6" d="M8.45312 45.9396L17.3221 56.611L39.0866 43.6669V43.2834L30.6347 32.8926L8.45312 45.9396Z" fill="#F3F1E6"/>
<path id="Vector_7" d="M61.2292 56.9249L72.3563 46.3002L50.2382 33.1035L49.9208 33.3093L39.0386 43.5972L61.2292 56.9249Z" fill="#F3F1E6"/>
<path id="Vector_8" d="M5.60498 53.0928L17.3578 56.6468L39.5938 69.6471L39.5847 70.0679L27.7321 67.047L5.60498 53.4949V53.0928Z" fill="white"/>
<path id="Vector_9" d="M17.4102 56.5626L5.62109 53.0928L27.7482 66.6355L39.6099 69.6471L17.4102 56.5626Z" fill="white"/>
<path id="Vector_10" d="M61.2356 56.8516L39.5981 69.6461L50.7524 72.536L72.8886 59.5358L61.8341 56.8516H61.2356Z" fill="#F2EDD3"/>
<path id="Vector_11" opacity="0.75" d="M47.9494 52.4596H47.9102C47.7443 52.4545 47.5811 52.4158 47.4297 52.3456C47.2783 52.2755 47.1419 52.1752 47.0281 52.0506C46.9143 51.926 46.8255 51.7795 46.7666 51.6195C46.7078 51.4595 46.6801 51.2891 46.6852 51.118C46.7079 50.3768 47.3318 32.854 57.0502 24.2638C57.1749 24.1449 57.3217 24.0532 57.4816 23.9942C57.6415 23.9351 57.8113 23.91 57.9809 23.9202C58.1505 23.9304 58.3163 23.9758 58.4685 24.0536C58.6206 24.1315 58.756 24.2402 58.8665 24.3733C58.977 24.5063 59.0603 24.661 59.1115 24.828C59.1626 24.9951 59.1806 25.171 59.1643 25.3454C59.1481 25.5198 59.0978 25.689 59.0167 25.8429C58.9355 25.9967 58.8251 26.1322 58.692 26.241C49.8274 34.0783 49.2199 51.0268 49.2098 51.1974C49.1996 51.5354 49.0624 51.856 48.8272 52.0916C48.592 52.3271 48.2772 52.4591 47.9494 52.4596Z" fill="#212020"/>
<path id="Vector_12" opacity="0.75" d="M33.052 51.3909C32.731 51.3916 32.4218 51.2663 32.1872 51.0403C31.9526 50.8143 31.8103 50.5047 31.7891 50.1743C31.7802 50.0245 30.7358 35.1588 22.7337 28.5706C22.6044 28.4636 22.4967 28.3312 22.4169 28.1813C22.3372 28.0313 22.2868 27.8666 22.2687 27.6965C22.2507 27.5264 22.2653 27.3544 22.3117 27.1901C22.3581 27.0259 22.4354 26.8727 22.5393 26.7393C22.6431 26.6059 22.7714 26.4948 22.9168 26.4125C23.0622 26.3303 23.2219 26.2783 23.3868 26.2597C23.5517 26.2411 23.7185 26.2561 23.8778 26.304C24.037 26.3519 24.1856 26.4316 24.315 26.5387C33.1947 33.8498 34.272 49.3511 34.3137 50.0076C34.3355 50.3522 34.2238 50.6916 34.0031 50.9512C33.7824 51.2108 33.4707 51.3695 33.1366 51.3922L33.052 51.3909Z" fill="#212020"/>
<path id="Vector_13" opacity="0.8" d="M39.6976 46.3985H39.6664C39.3712 46.3864 39.0913 46.1947 38.8881 45.8656C38.6849 45.5364 38.5751 45.0968 38.5829 44.6433C38.6152 42.7462 38.8646 33.1135 40.6107 29.8171C40.7972 29.4652 41.067 29.2416 41.3608 29.1954C41.6547 29.1492 41.9484 29.2842 42.1774 29.5707C42.4064 29.8572 42.552 30.2718 42.5821 30.7232C42.6121 31.1745 42.5243 31.6258 42.3378 31.9776C41.4046 33.7379 40.8813 40.4967 40.81 44.734C40.8022 45.1794 40.6815 45.6024 40.4738 45.9133C40.2661 46.2241 39.9876 46.3982 39.6976 46.3985Z" fill="#212020"/>
<path id="Vector_14" opacity="0.8" d="M42.0066 15.1765C41.6716 15.1765 41.3504 15.0393 41.1136 14.795C40.8767 14.5508 40.7437 14.2195 40.7437 13.874V12.3279C40.7437 11.9825 40.8767 11.6512 41.1136 11.4069C41.3504 11.1626 41.6716 11.0254 42.0066 11.0254C42.3416 11.0254 42.6628 11.1626 42.8996 11.4069C43.1365 11.6512 43.2695 11.9825 43.2695 12.3279V13.874C43.2695 14.2195 43.1365 14.5508 42.8996 14.795C42.6628 15.0393 42.3416 15.1765 42.0066 15.1765Z" fill="#212020"/>
<path id="Vector_15" opacity="0.8" d="M42.0066 25.1997C41.6716 25.1997 41.3504 25.0624 41.1136 24.8182C40.8767 24.5739 40.7437 24.2426 40.7437 23.8971V22.2976C40.7437 21.9522 40.8767 21.6209 41.1136 21.3766C41.3504 21.1323 41.6716 20.9951 42.0066 20.9951C42.3416 20.9951 42.6628 21.1323 42.8996 21.3766C43.1365 21.6209 43.2695 21.9522 43.2695 22.2976V23.8971C43.2695 24.2426 43.1365 24.5739 42.8996 24.8182C42.6628 25.0624 42.3416 25.1997 42.0066 25.1997Z" fill="#212020"/>
<path id="Vector_16" opacity="0.8" d="M47.6161 19.4097H46.117C45.782 19.4097 45.4608 19.2725 45.2239 19.0282C44.9871 18.784 44.854 18.4527 44.854 18.1072C44.854 17.7618 44.9871 17.4305 45.2239 17.1862C45.4608 16.9419 45.782 16.8047 46.117 16.8047H47.6161C47.951 16.8047 48.2723 16.9419 48.5091 17.1862C48.746 17.4305 48.879 17.7618 48.879 18.1072C48.879 18.4527 48.746 18.784 48.5091 19.0282C48.2723 19.2725 47.951 19.4097 47.6161 19.4097Z" fill="#212020"/>
<path id="Vector_17" opacity="0.8" d="M37.9478 19.4097H36.3982C36.0632 19.4097 35.742 19.2725 35.5052 19.0282C35.2683 18.784 35.1353 18.4527 35.1353 18.1072C35.1353 17.7618 35.2683 17.4305 35.5052 17.1862C35.742 16.9419 36.0632 16.8047 36.3982 16.8047H37.9478C38.2828 16.8047 38.604 16.9419 38.8409 17.1862C39.0777 17.4305 39.2108 17.7618 39.2108 18.1072C39.2108 18.4527 39.0777 18.784 38.8409 19.0282C38.604 19.2725 38.2828 19.4097 37.9478 19.4097Z" fill="#212020"/>
<path id="Vector_18" opacity="0.75" d="M65.0765 26.3735C64.7415 26.3735 64.4203 26.2362 64.1834 25.992C63.9466 25.7477 63.8135 25.4164 63.8135 25.0709C63.8072 23.0612 63.0282 21.136 61.6474 19.7178C60.2666 18.2996 58.3967 17.5041 56.448 17.5059C56.1131 17.5059 55.7918 17.3686 55.555 17.1244C55.3181 16.8801 55.1851 16.5488 55.1851 16.2033C55.1851 15.8579 55.3181 15.5266 55.555 15.2823C55.7918 15.038 56.1131 14.9008 56.448 14.9008C58.4007 14.8984 60.2728 14.0973 61.6536 12.6732C63.0344 11.2492 63.8112 9.31841 63.8135 7.30448C63.8135 6.95903 63.9466 6.62773 64.1834 6.38345C64.4203 6.13918 64.7415 6.00195 65.0765 6.00195C65.4114 6.00195 65.7327 6.13918 65.9695 6.38345C66.2064 6.62773 66.3394 6.95903 66.3394 7.30448C66.3381 9.31439 67.1097 11.2428 68.485 12.6669C69.8603 14.0909 71.727 14.8943 73.6759 14.9008C74.0108 14.9008 74.3321 15.038 74.5689 15.2823C74.8058 15.5266 74.9388 15.8579 74.9388 16.2033C74.9388 16.5488 74.8058 16.8801 74.5689 17.1244C74.3321 17.3686 74.0108 17.5059 73.6759 17.5059C71.731 17.5079 69.8663 18.3056 68.4909 19.7238C67.1155 21.1421 66.3418 23.0651 66.3394 25.0709C66.3394 25.4164 66.2064 25.7477 65.9695 25.992C65.7327 26.2362 65.4114 26.3735 65.0765 26.3735ZM61.2876 16.2007C62.872 17.1185 64.1824 18.4663 65.0765 20.0979C65.9681 18.4675 67.2753 17.1198 68.8565 16.2007C67.2744 15.2783 65.9672 13.927 65.0765 12.2932C64.1823 13.9287 62.8706 15.2802 61.2838 16.2007H61.2876Z" fill="#212020"/>
<path id="Vector_19" opacity="0.75" d="M16.7923 31.6166C16.4573 31.6166 16.1361 31.4794 15.8992 31.2351C15.6624 30.9909 15.5293 30.6596 15.5293 30.3141C15.523 28.3043 14.744 26.3792 13.3632 24.961C11.9824 23.5428 10.1125 22.7473 8.16383 22.749C7.82887 22.749 7.50764 22.6118 7.27079 22.3675C7.03394 22.1233 6.90088 21.792 6.90088 21.4465C6.90088 21.1011 7.03394 20.7698 7.27079 20.5255C7.50764 20.2812 7.82887 20.144 8.16383 20.144C10.1167 20.1419 11.9889 19.3409 13.3698 17.9168C14.7507 16.4926 15.5273 14.5617 15.5293 12.5476C15.5293 12.2022 15.6624 11.8709 15.8992 11.6266C16.1361 11.3823 16.4573 11.2451 16.7923 11.2451C17.1272 11.2451 17.4485 11.3823 17.6853 11.6266C17.9222 11.8709 18.0552 12.2022 18.0552 12.5476C18.0535 14.5577 18.825 16.4863 20.2004 17.9104C21.5758 19.3345 23.4428 20.1378 25.3917 20.144C25.7266 20.144 26.0479 20.2812 26.2847 20.5255C26.5216 20.7698 26.6546 21.1011 26.6546 21.4465C26.6546 21.792 26.5216 22.1233 26.2847 22.3675C26.0479 22.6118 25.7266 22.749 25.3917 22.749C23.4468 22.7511 21.5821 23.5488 20.2067 24.967C18.8313 26.3852 18.0576 28.3082 18.0552 30.3141C18.0552 30.6596 17.9222 30.9909 17.6853 31.2351C17.4485 31.4794 17.1272 31.6166 16.7923 31.6166ZM13.0034 21.4452C14.5884 22.3622 15.8989 23.7102 16.7923 25.3424C17.6829 23.7112 18.9904 22.3632 20.5723 21.4452C18.99 20.523 17.6827 19.1716 16.7923 17.5376C15.898 19.1731 14.5863 20.5245 12.9997 21.4452H13.0034Z" fill="#212020"/>
</g>
</g>
</g>
</g>
</g>
</g>
</g>
<defs>
<filter id="filter0_b_8379_32" x="-41.6816" y="-62.7725" width="159.467" height="189.545" filterUnits="userSpaceOnUse" color-interpolation-filters="sRGB">
<feFlood flood-opacity="0" result="BackgroundImageFix"/>
<feGaussianBlur in="BackgroundImageFix" stdDeviation="2"/>
<feComposite in2="SourceAlpha" operator="in" result="effect1_backgroundBlur_8379_32"/>
<feBlend mode="normal" in="SourceGraphic" in2="effect1_backgroundBlur_8379_32" result="shape"/>
</filter>
</defs>
</svg>
