<svg width="21" height="21" viewBox="0 0 21 21" fill="none" xmlns="http://www.w3.org/2000/svg">
<g id="chart-mixed-up-circle-dollar_16106373 1" clip-path="url(#clip0_9719_2360)">
<path id="Vector" d="M8.75022 5.6875V20.5625C8.75022 20.804 8.55422 21 8.31272 21C8.07122 21 7.87522 20.804 7.87522 20.5625V5.6875C7.87522 5.446 8.07122 5.25 8.31272 5.25C8.55422 5.25 8.75022 5.446 8.75022 5.6875ZM21.0002 15.75C21.0002 18.6454 18.6456 21 15.7502 21C12.8548 21 10.5002 18.6454 10.5002 15.75C10.5002 12.8546 12.8548 10.5 15.7502 10.5C18.6456 10.5 21.0002 12.8546 21.0002 15.75ZM20.1252 15.75C20.1252 13.3376 18.1626 11.375 15.7502 11.375C13.3378 11.375 11.3752 13.3376 11.3752 15.75C11.3752 18.1624 13.3378 20.125 15.7502 20.125C18.1626 20.125 20.1252 18.1624 20.1252 15.75ZM1.31272 12.25C1.07122 12.25 0.875219 12.446 0.875219 12.6875V20.5625C0.875219 20.804 1.07122 21 1.31272 21C1.55422 21 1.75022 20.804 1.75022 20.5625V12.6875C1.75022 12.446 1.55422 12.25 1.31272 12.25ZM4.81272 8.75C4.57122 8.75 4.37522 8.946 4.37522 9.1875V20.5625C4.37522 20.804 4.57122 21 4.81272 21C5.05422 21 5.25022 20.804 5.25022 20.5625V9.1875C5.25022 8.946 5.05422 8.75 4.81272 8.75ZM14.982 14H16.5307C16.62 14 17.0627 14.021 17.0627 14.4375C17.0627 14.679 17.2587 14.875 17.5002 14.875C17.7417 14.875 17.9377 14.679 17.9377 14.4375C17.9377 13.6771 17.3453 13.125 16.5307 13.125H16.1877V12.6875C16.1877 12.446 15.9917 12.25 15.7502 12.25C15.5087 12.25 15.3127 12.446 15.3127 12.6875V13.125H14.982C14.1988 13.125 13.5627 13.762 13.5627 14.5442C13.5627 15.1821 13.9923 15.7447 14.6302 15.918L16.6305 16.3546C16.8851 16.422 17.0627 16.6539 17.0627 16.9172C17.0627 17.2384 16.8011 17.5 16.48 17.5H15.0205C14.884 17.5 14.4377 17.4685 14.4377 17.0625C14.4377 16.821 14.2417 16.625 14.0002 16.625C13.7587 16.625 13.5627 16.821 13.5627 17.0625C13.5627 17.8351 14.163 18.375 15.0205 18.375H15.3127V18.8125C15.3127 19.054 15.5087 19.25 15.7502 19.25C15.9917 19.25 16.1877 19.054 16.1877 18.8125V18.375H16.48C17.2841 18.375 17.9377 17.7214 17.9377 16.9172C17.9377 16.2593 17.4932 15.68 16.837 15.505L14.8385 15.0693C14.6022 15.0045 14.4377 14.7892 14.4377 14.5442C14.4377 14.2441 14.6818 14 14.982 14ZM19.6877 0H15.3127C15.0712 0 14.8752 0.196 14.8752 0.4375C14.8752 0.679 15.0712 0.875 15.3127 0.875H19.5066L14.6836 5.698C14.065 6.31575 13.0605 6.31575 12.4418 5.698L10.0531 3.30925C9.09322 2.34938 7.53309 2.34938 6.57322 3.30925L0.127969 9.75275C-0.0426563 9.92338 -0.0426563 10.2007 0.127969 10.3714C0.213719 10.4571 0.325719 10.4991 0.437719 10.4991C0.549719 10.4991 0.661719 10.4563 0.747469 10.3714L7.19184 3.927C7.80959 3.30925 8.81584 3.30925 9.43359 3.927L11.8223 6.31575C12.7813 7.27475 14.3432 7.27475 15.3022 6.31575L20.1252 1.49363V5.6875C20.1252 5.929 20.3212 6.125 20.5627 6.125C20.8042 6.125 21.0002 5.929 21.0002 5.6875V1.3125C21.0002 0.588875 20.4113 0 19.6877 0Z" fill="#212020"/>
</g>
<defs>
<clipPath id="clip0_9719_2360">
<rect width="21" height="21" fill="white"/>
</clipPath>
</defs>
</svg>
