<svg width="30" height="30" viewBox="0 0 30 30" fill="none" xmlns="http://www.w3.org/2000/svg">
<g id="grocery-basket_14899860 1" clip-path="url(#clip0_9725_6843)">
<path id="Vector" d="M8.74993 15.6252V24.3752C8.74993 24.7202 8.46993 25.0002 8.12493 25.0002C7.77993 25.0002 7.49993 24.7202 7.49993 24.3752V15.6252C7.49993 15.2802 7.77993 15.0002 8.12493 15.0002C8.46993 15.0002 8.74993 15.2802 8.74993 15.6252ZM14.9999 15.0002C14.6549 15.0002 14.3749 15.2802 14.3749 15.6252V24.3752C14.3749 24.7202 14.6549 25.0002 14.9999 25.0002C15.3449 25.0002 15.6249 24.7202 15.6249 24.3752V15.6252C15.6249 15.2802 15.3449 15.0002 14.9999 15.0002ZM29.9737 14.7877L28.5712 24.0452C28.1199 27.4352 25.1899 30.0002 21.7587 30.0002H8.24243C4.81118 30.0002 1.88118 27.4352 1.42743 24.0352L0.0286799 14.8002C-0.0925701 13.8952 0.18118 12.9939 0.77493 12.3164C1.23493 11.7914 1.85493 11.4464 2.52993 11.3152C2.59743 10.2089 2.84743 9.13141 3.29743 8.11016L4.41618 5.57016C4.80493 4.69016 5.00118 3.75641 5.00118 2.79641V1.25141H4.37618C4.03118 1.25141 3.75118 0.971407 3.75118 0.626407C3.75118 0.281407 4.03118 0.00140711 4.37618 0.00140711H14.3762C14.7212 0.00140711 15.0012 0.281407 15.0012 0.626407C15.0012 0.971407 14.7212 1.25141 14.3762 1.25141H13.7512V2.79641C13.7512 3.75641 13.9474 4.69016 14.3362 5.57016L15.4562 8.11141C15.8974 9.11266 16.1462 10.1664 16.2187 11.2514C16.7524 10.1127 17.8574 8.24016 17.8574 8.24016C20.8124 2.52141 24.7162 -0.856093 27.1499 0.190157C27.7462 0.448907 28.1999 0.962657 28.4624 1.67516C29.1999 3.67641 28.4912 7.32516 26.6274 11.2489H26.8762C27.7762 11.2489 28.6324 11.6377 29.2262 12.3152C29.8199 12.9927 30.0912 13.8952 29.9737 14.7877ZM17.7337 11.2502H25.2587C27.0537 7.58266 27.9137 3.80391 27.2887 2.10891C27.1437 1.71391 26.9349 1.46016 26.6512 1.33891C25.4812 0.832657 23.1387 2.44391 20.8699 5.66266L23.3012 7.12141C23.5974 7.29891 23.6937 7.68266 23.5162 7.97891C23.3987 8.17391 23.1912 8.28266 22.9799 8.28266C22.8699 8.28266 22.7587 8.25516 22.6587 8.19391L20.1749 6.70391C19.7624 7.35766 19.3562 8.05766 18.9649 8.81391C18.9649 8.81391 18.1787 10.3289 17.7324 11.2514L17.7337 11.2502ZM3.78243 11.2502H14.9662C14.8949 10.3402 14.6799 9.45516 14.3099 8.61516L13.1899 6.07266C12.7324 5.03391 12.4999 3.93016 12.4999 2.79641V1.25141H6.24993V2.79641C6.24993 3.93016 6.01743 5.03391 5.55993 6.07266L4.43993 8.61391C4.06743 9.45641 3.85243 10.3414 3.78243 11.2502ZM28.2849 13.1402C27.9287 12.7339 27.4149 12.5002 26.8749 12.5002C26.8749 12.5002 3.09118 12.5077 3.07368 12.5052C2.55368 12.5202 2.05993 12.7464 1.71493 13.1389C1.35868 13.5452 1.19493 14.0864 1.26743 14.6239L2.66493 23.8577C3.03743 26.6514 5.43493 28.7502 8.24243 28.7502H21.7574C24.5649 28.7502 26.9624 26.6514 27.3324 23.8689L28.7349 14.6127C28.8049 14.0877 28.6412 13.5464 28.2849 13.1402ZM21.8749 15.0002C21.5299 15.0002 21.2499 15.2802 21.2499 15.6252V24.3752C21.2499 24.7202 21.5299 25.0002 21.8749 25.0002C22.2199 25.0002 22.4999 24.7202 22.4999 24.3752V15.6252C22.4999 15.2802 22.2199 15.0002 21.8749 15.0002Z" fill="#212020"/>
</g>
<defs>
<clipPath id="clip0_9725_6843">
<rect width="30" height="30" fill="white"/>
</clipPath>
</defs>
</svg>
