<svg width="21" height="21" viewBox="0 0 21 21" fill="none" xmlns="http://www.w3.org/2000/svg">
<g id="holding-hand-gear_16542694 1" clip-path="url(#clip0_9743_5436)">
<path id="Vector" d="M9.1875 5.2499C9.1875 4.28477 8.40263 3.4999 7.4375 3.4999C6.47238 3.4999 5.6875 4.28477 5.6875 5.2499C5.6875 6.21502 6.47238 6.9999 7.4375 6.9999C8.40263 6.9999 9.1875 6.21502 9.1875 5.2499ZM7.4375 6.1249C6.9545 6.1249 6.5625 5.7329 6.5625 5.2499C6.5625 4.7669 6.9545 4.3749 7.4375 4.3749C7.9205 4.3749 8.3125 4.7669 8.3125 5.2499C8.3125 5.7329 7.9205 6.1249 7.4375 6.1249ZM3.3775 6.11352L3.58138 5.99277C3.52625 5.73115 3.49913 5.48965 3.49913 5.24902C3.49913 5.0084 3.52538 4.7669 3.58225 4.5044L3.3775 4.38365C3.07563 4.2069 2.86038 3.92252 2.77288 3.58302C2.6845 3.24265 2.73438 2.89002 2.912 2.58727C3.08875 2.2854 3.37313 2.07015 3.71263 1.98265C4.053 1.89252 4.40563 1.94327 4.70925 2.12177L4.90438 2.2364C5.2605 1.9389 5.67525 1.70615 6.12588 1.54865V1.31152C6.12588 0.587898 6.71475 -0.000976562 7.43838 -0.000976562C8.162 -0.000976562 8.75088 0.587898 8.75088 1.31152V1.54865C9.2015 1.70615 9.61538 1.9389 9.97238 2.2364L10.1675 2.12177C10.4711 1.94327 10.8229 1.89252 11.1641 1.98265C11.5036 2.07102 11.788 2.28627 11.9656 2.58815C12.1424 2.89002 12.1923 3.24265 12.1039 3.58302C12.0155 3.92252 11.8003 4.2069 11.4984 4.38452L11.2945 4.5044C11.3505 4.7669 11.3776 5.0084 11.3776 5.24902C11.3776 5.48965 11.3514 5.73115 11.2954 5.99277L11.4984 6.11265C11.8011 6.29115 12.0164 6.57552 12.1039 6.91502C12.1923 7.2554 12.1424 7.60802 11.9648 7.91077C11.788 8.21265 11.5036 8.4279 11.1641 8.5154C10.8229 8.6064 10.4711 8.55477 10.1675 8.37627L9.97238 8.26165C9.61625 8.55915 9.2015 8.7919 8.75088 8.9494V9.18652C8.75088 9.42802 8.55488 9.62402 8.31338 9.62402C8.07188 9.62402 7.87588 9.42802 7.87588 9.18652V8.62477C7.87588 8.42527 8.01063 8.25115 8.204 8.20127C8.74563 8.06127 9.23038 7.78827 9.6075 7.41115C9.7475 7.27027 9.96713 7.24315 10.1386 7.34377L10.6111 7.62202C10.7118 7.68065 10.8281 7.69727 10.9427 7.6684C11.0565 7.63952 11.1501 7.56777 11.2096 7.46715C11.2691 7.36652 11.2858 7.2484 11.2569 7.13552C11.228 7.02177 11.1563 6.92727 11.0548 6.8669L10.5691 6.58252C10.3976 6.48102 10.3154 6.27627 10.3696 6.08552C10.4598 5.76965 10.5009 5.50365 10.5009 5.2499C10.5009 4.99615 10.4589 4.73015 10.3696 4.41427C10.3154 4.22265 10.3959 4.01877 10.5683 3.91815L11.0548 3.63202C11.1563 3.57252 11.228 3.47715 11.2569 3.36427C11.2858 3.2514 11.27 3.13327 11.2105 3.03352C11.151 2.93202 11.0565 2.86027 10.9427 2.8314C10.829 2.80252 10.7109 2.81827 10.6111 2.87777L10.1386 3.15602C9.96625 3.25665 9.7475 3.22952 9.6075 3.08865C9.23038 2.71065 8.7465 2.43852 8.204 2.29852C8.01063 2.24777 7.87588 2.07365 7.87588 1.87502V1.31327C7.87588 1.07265 7.679 0.875773 7.43838 0.875773C7.19775 0.875773 7.00088 1.07265 7.00088 1.31327V1.87502C7.00088 2.07452 6.86613 2.24865 6.67275 2.29852C6.13113 2.43852 5.64638 2.71152 5.26925 3.08865C5.12925 3.2304 4.9105 3.25752 4.73813 3.15602L4.26563 2.87777C4.165 2.81915 4.04775 2.80165 3.934 2.8314C3.82025 2.86027 3.72663 2.93202 3.66713 3.03265C3.60763 3.13327 3.591 3.2514 3.61988 3.36427C3.64875 3.47715 3.7205 3.57165 3.82113 3.63115L4.3085 3.91815C4.48 4.01877 4.56138 4.22352 4.50713 4.41427C4.417 4.73015 4.37588 4.99615 4.37588 5.2499C4.37588 5.50365 4.41788 5.76965 4.50713 6.08552C4.56138 6.27715 4.48 6.48102 4.30763 6.58252L3.82113 6.86777C3.7205 6.9264 3.64875 7.02177 3.61988 7.13552C3.591 7.2484 3.60675 7.36652 3.66625 7.46627C3.72575 7.56777 3.82025 7.63952 3.934 7.6684C4.0495 7.69815 4.16675 7.68152 4.26563 7.62202L4.73813 7.34377C4.90875 7.24227 5.12838 7.2694 5.26925 7.41115C5.64638 7.78915 6.13025 8.06127 6.67275 8.20127C6.86613 8.25202 7.00088 8.42615 7.00088 8.62477V9.18652C7.00088 9.42802 6.80488 9.62402 6.56338 9.62402C6.32188 9.62402 6.12588 9.42802 6.12588 9.18652V8.9494C5.67525 8.7919 5.26138 8.55915 4.90438 8.26165L4.70925 8.37627C4.40563 8.55477 4.053 8.6064 3.71263 8.5154C3.37313 8.42702 3.08875 8.21177 2.91113 7.9099C2.73438 7.60802 2.6845 7.2554 2.77288 6.91502C2.86125 6.57552 3.0765 6.29115 3.3775 6.11352ZM20.2825 8.44715C19.8476 8.05252 19.2798 7.84952 18.6996 7.87752C18.1134 7.90465 17.5726 8.1584 17.178 8.5924L13.9125 12.1825C13.6378 11.213 12.7444 10.4999 11.6874 10.4999H3.0625C1.37375 10.4999 0 11.8736 0 13.5624V17.9374C0 19.6261 1.37375 20.9999 3.0625 20.9999H8.28188C10.6496 20.9999 12.9115 19.9858 14.4883 18.2174L20.4435 11.5324C21.2406 10.639 21.168 9.2539 20.2825 8.44715ZM19.7899 10.9496L13.8346 17.6346C12.4241 19.2175 10.3994 20.1249 8.281 20.1249H3.0625C1.85588 20.1249 0.875 19.144 0.875 17.9374V13.5624C0.875 12.3558 1.85588 11.3749 3.0625 11.3749H11.6874C12.4793 11.3749 13.125 12.0198 13.125 12.8125C13.125 13.523 12.5956 14.1346 11.9018 14.2335L6.51088 14.8784C6.27113 14.9064 6.09963 15.1243 6.1285 15.3649C6.1565 15.6046 6.37525 15.7823 6.615 15.7473L12.0155 15.1015C12.9098 14.9738 13.6308 14.3324 13.8933 13.5055L17.8273 9.1839C18.0644 8.92227 18.3899 8.76915 18.7425 8.7534C19.0943 8.73677 19.4338 8.8584 19.6945 9.0964C20.2274 9.5829 20.2703 10.415 19.7908 10.9523L19.7899 10.9496Z" fill="#212020"/>
</g>
<defs>
<clipPath id="clip0_9743_5436">
<rect width="21" height="21" fill="white"/>
</clipPath>
</defs>
</svg>
