<svg width="30" height="30" viewBox="0 0 30 30" fill="none" xmlns="http://www.w3.org/2000/svg">
<g id="mobile-hand_17697837 1" clip-path="url(#clip0_9725_6853)">
<g id="Vector">
<path fill-rule="evenodd" clip-rule="evenodd" d="M24.375 0H16.875C13.8621 0 11.3943 2.382 11.2561 5.3614C11.252 5.44877 11.25 5.53665 11.25 5.625V7.13375V11.875V16.3886L12.5 15.262V11.875V5.625C12.5 3.2125 14.4625 1.25 16.875 1.25H24.375C26.7875 1.25 28.75 3.2125 28.75 5.625V18.75H18.2675C19.0863 17.3888 18.8337 15.5962 17.5863 14.5362C16.3412 13.4787 14.4813 13.4963 13.2525 14.5837L12.5 15.262L11.25 16.3886L7.705 19.5837C7.44875 19.815 7.4275 20.21 7.66 20.4675C7.89 20.7238 8.285 20.7437 8.5425 20.5137L14.085 15.5175C14.8437 14.845 16 14.8337 16.7762 15.49C17.6375 16.2225 17.7425 17.5212 16.9725 18.4312L12.2525 25.235C11.5963 26.1813 11.2487 27.29 11.2487 28.4412V29.3762C11.2487 29.7212 11.5287 30.0012 11.8737 30.0012C12.2188 30.0012 12.4987 29.7212 12.4987 29.3762V28.4412C12.4987 27.6012 12.745 26.795 13.195 26.0912C14.2125 26.9788 15.5062 27.5012 16.8737 27.5012H24.3738C27.475 27.5012 29.9988 24.9775 29.9988 21.8762V5.625C29.9988 2.52375 27.4762 0 24.375 0ZM24.375 26.25C26.7875 26.25 28.75 24.2875 28.75 21.875L28.7488 21.8762V20.0012C28.7488 20.0012 17.4425 19.9875 17.4137 19.9838L13.9013 25.0513C14.7088 25.805 15.7612 26.25 16.875 26.25H24.375Z" fill="#212020"/>
<path d="M5.10125 12.995L8.5475 9.83625L8.58454 9.79921L11.25 7.13375V5.625C11.25 5.53665 11.252 5.44877 11.2561 5.3614L7.7025 8.915L4.25625 12.0738C1.55125 14.5538 0 18.0788 0 21.7488V29.375C0 29.72 0.28 30 0.625 30C0.97 30 1.25 29.72 1.25 29.375V21.7488C1.25 18.4288 2.65375 15.2375 5.10125 12.995Z" fill="#212020"/>
<path fill-rule="evenodd" clip-rule="evenodd" d="M18.125 23.125C18.125 22.78 18.405 22.5 18.75 22.5H22.5C22.845 22.5 23.125 22.78 23.125 23.125C23.125 23.47 22.845 23.75 22.5 23.75H18.75C18.405 23.75 18.125 23.47 18.125 23.125Z" fill="#212020"/>
</g>
</g>
<defs>
<clipPath id="clip0_9725_6853">
<rect width="30" height="30" fill="white"/>
</clipPath>
</defs>
</svg>
