<svg width="30" height="30" viewBox="0 0 30 30" fill="none" xmlns="http://www.w3.org/2000/svg">
<g id="digital-payment_17525080 2" clip-path="url(#clip0_9719_2311)">
<path id="Vector" d="M16.2362 7.6875C16.4775 7.935 16.4725 8.33 16.2262 8.57125L10.335 14.3263C9.4325 15.2175 7.96125 15.2188 7.055 14.33L3.93375 11.2325C3.69 10.9888 3.6875 10.5938 3.93125 10.3488C4.1725 10.1038 4.57 10.1012 4.815 10.345L7.9325 13.44C8.35125 13.8512 9.0375 13.8513 9.45875 13.435L15.3525 7.6775C15.6012 7.4375 15.9975 7.44125 16.2362 7.6875ZM30 8.125V15.625C30 18.0375 28.0375 20 25.625 20H20V24.375C20 27.4762 17.4762 30 14.375 30H5.625C2.52375 30 0 27.4762 0 24.375V5.625C0 2.52375 2.52375 0 5.625 0H14.375C16.8162 0 18.8775 1.5725 19.655 3.75H25.625C28.0375 3.75 30 5.7125 30 8.125ZM18.75 22.5H1.25V24.375C1.25 26.7875 3.2125 28.75 5.625 28.75H14.375C16.7875 28.75 18.75 26.7875 18.75 24.375V22.5ZM18.75 5.625C18.75 3.2125 16.7875 1.25 14.375 1.25H5.625C3.2125 1.25 1.25 3.2125 1.25 5.625V21.25H18.75V5.625ZM28.75 10H20V18.75H25.625C27.3487 18.75 28.75 17.3475 28.75 15.625V10ZM28.75 8.125C28.75 6.4025 27.3487 5 25.625 5H19.9363C19.96 5.2075 20 5.41125 20 5.625V8.75H28.75V8.125ZM8.125 26.25H11.875C12.22 26.25 12.5 25.97 12.5 25.625C12.5 25.28 12.22 25 11.875 25H8.125C7.78 25 7.5 25.28 7.5 25.625C7.5 25.97 7.78 26.25 8.125 26.25Z" fill="#212020"/>
</g>
<defs>
<clipPath id="clip0_9719_2311">
<rect width="30" height="30" fill="white"/>
</clipPath>
</defs>
</svg>
