<svg width="30" height="30" viewBox="0 0 30 30" fill="none" xmlns="http://www.w3.org/2000/svg">
<g id="feedback-review_13085381 1" clip-path="url(#clip0_9719_2335)">
<path id="Vector" d="M10.4887 5.0425L11.8874 6.18125L11.3349 7.8425C11.1624 8.39 11.3562 8.98875 11.8162 9.33375C12.0524 9.51 12.3337 9.6025 12.6274 9.6025C12.8962 9.6025 13.1562 9.52375 13.3812 9.37375L15.0124 8.28125L16.6749 9.365C17.1562 9.6775 17.7849 9.65125 18.2399 9.3025C18.6949 8.95125 18.8799 8.34875 18.6949 7.79375L18.1262 6.17375L19.5187 5.03875C19.9524 4.67375 20.1137 4.07125 19.9187 3.53875C19.7237 3.00625 19.2137 2.64875 18.6462 2.64875H16.8987L16.2699 0.88375C16.0749 0.355 15.5649 0 15.0012 0C14.4374 0 13.9274 0.355 13.7287 0.89L13.1024 2.6475H11.3549C10.7887 2.6475 10.2787 3.00375 10.0837 3.5325C9.88742 4.0625 10.0462 4.6675 10.4887 5.0425ZM11.3549 3.8975H13.5424C13.8062 3.8975 14.0424 3.73125 14.1312 3.4825L14.9062 1.31H15.0937L15.8687 3.4825C15.9574 3.73125 16.1937 3.8975 16.4574 3.8975H18.6449L18.7199 4.075L16.9949 5.48125C16.7912 5.6475 16.7124 5.92375 16.7999 6.1725L17.5137 8.2075L17.3549 8.3175L15.3474 7.01C15.1374 6.8725 14.8674 6.87625 14.6587 7.01375L12.6849 8.335C12.6624 8.35 12.6412 8.3525 12.6262 8.3525L12.5237 8.22625L13.2099 6.165C13.2912 5.91875 13.2124 5.64625 13.0112 5.48375L11.2774 4.07375L11.3549 3.8975ZM29.9187 7.1525C29.7237 6.62 29.2137 6.2625 28.6462 6.2625H26.8987L26.2699 4.4975C26.0749 3.96875 25.5649 3.61375 25.0012 3.61375C24.4374 3.61375 23.9274 3.96875 23.7287 4.50375L23.1024 6.26125H21.3549C20.7887 6.26125 20.2774 6.61875 20.0849 7.14625C19.8887 7.6775 20.0462 8.28 20.4887 8.655L21.8874 9.79375L21.3349 11.455C21.1624 12.0025 21.3562 12.6012 21.8149 12.945C22.0499 13.1225 22.3312 13.215 22.6274 13.215C22.8962 13.215 23.1562 13.1362 23.3812 12.9862L25.0124 11.8938L26.6749 12.9775C27.1549 13.29 27.7849 13.2638 28.2399 12.915C28.6949 12.5637 28.8799 11.9613 28.6949 11.4062L28.1262 9.78625L29.5187 8.65125C29.9524 8.28625 30.1137 7.685 29.9187 7.1525ZM26.9962 9.095C26.7924 9.26125 26.7137 9.5375 26.8012 9.78625L27.5149 11.8212L27.3562 11.9312L25.3487 10.6237C25.1387 10.4875 24.8674 10.49 24.6599 10.6275L22.6862 11.9487C22.6637 11.9637 22.6424 11.9662 22.6274 11.9662L22.5249 11.84L23.2112 9.77875C23.2924 9.5325 23.2137 9.26 23.0124 9.0975L21.2787 7.6875L21.3562 7.5125H23.5437C23.8074 7.5125 24.0437 7.34625 24.1324 7.0975L24.9074 4.925H25.0949L25.8699 7.0975C25.9587 7.34625 26.1949 7.5125 26.4587 7.5125H28.6462L28.7212 7.69L26.9962 9.095ZM6.67367 12.9788C7.15492 13.2913 7.78367 13.265 8.23867 12.9163C8.69367 12.565 8.87867 11.9625 8.69367 11.4075L8.12492 9.7875L9.51742 8.6525C9.95117 8.2875 10.1124 7.685 9.91742 7.1525C9.72242 6.62 9.21242 6.2625 8.64492 6.2625H6.89742L6.26867 4.4975C6.07367 3.96875 5.56367 3.61375 4.99992 3.61375C4.43617 3.61375 3.92617 3.96875 3.72742 4.50375L3.10117 6.26125H1.35367C0.787423 6.26125 0.276174 6.61875 0.0836736 7.14625C-0.112576 7.6775 0.0449236 8.28 0.487424 8.655L1.88617 9.79375L1.33367 11.455C1.16117 12.0025 1.35492 12.6012 1.81367 12.945C2.04867 13.1225 2.32992 13.215 2.62617 13.215C2.89492 13.215 3.15492 13.1362 3.37992 12.9862L5.01117 11.8938L6.67367 12.9775V12.9788ZM4.65867 10.6275L2.68492 11.9487C2.66242 11.9637 2.64117 11.9662 2.62617 11.9662L2.52367 11.84L3.20992 9.77875C3.29117 9.5325 3.21242 9.26 3.01117 9.0975L1.27742 7.6875L1.35492 7.5125H3.54242C3.80617 7.5125 4.04242 7.34625 4.13117 7.0975L4.90617 4.925H5.09367L5.86867 7.0975C5.95742 7.34625 6.19367 7.5125 6.45742 7.5125H8.64492L8.71992 7.69L6.99492 9.09625C6.79117 9.2625 6.71242 9.53875 6.79992 9.7875L7.51367 11.8225L7.35492 11.9325L5.34742 10.625C5.13867 10.4888 4.86742 10.4913 4.65867 10.6287V10.6275ZM21.2499 17.5H16.0212L16.7549 13.3375C16.7741 12.9142 16.7741 12.6921 16.7549 12.6713C16.6037 12.1163 16.2524 11.6788 15.7662 11.44C15.2737 11.2 14.7062 11.19 14.1649 11.415C13.8474 11.5463 13.5374 11.8737 13.3162 12.305L10.5712 17.4987H8.75117C6.68367 17.4987 5.00117 19.1813 5.00117 21.2488V26.2488C5.00117 28.3162 6.68367 29.9988 8.75117 29.9988H19.2249C21.5999 29.9988 23.6624 28.3075 24.1287 25.9788L24.9274 21.9837C25.1487 20.8775 24.8649 19.7437 24.1499 18.8713C23.4349 17.9988 22.3787 17.4987 21.2499 17.4987V17.5ZM6.25117 26.25V21.25C6.25117 19.8713 7.37242 18.75 8.75117 18.75H10.0012V28.75H8.75117C7.37242 28.75 6.25117 27.6287 6.25117 26.25ZM23.7012 21.74L22.9024 25.735C22.5524 27.4812 21.0062 28.75 19.2249 28.75H11.2512V18.5487C11.4274 18.435 11.5749 18.2763 11.6762 18.0837L14.4262 12.8825C14.5437 12.6525 14.6537 12.5688 14.6474 12.5688C14.8512 12.4838 15.0524 12.4825 15.2162 12.5625C15.3412 12.6238 15.4399 12.7312 15.5249 12.9262L14.7924 17.2812C14.7274 17.6462 14.8262 18.0175 15.0649 18.3037C15.3037 18.5875 15.6524 18.75 16.0224 18.75H21.2512C22.0037 18.75 22.7074 19.0837 23.1837 19.665C23.6612 20.2463 23.8487 21.0025 23.7012 21.74Z" fill="#212020"/>
</g>
<defs>
<clipPath id="clip0_9719_2335">
<rect width="30" height="30" fill="white"/>
</clipPath>
</defs>
</svg>
