<svg width="21" height="21" viewBox="0 0 21 21" fill="none" xmlns="http://www.w3.org/2000/svg">
<g id="task-checklist_18620936 1" clip-path="url(#clip0_9721_6770)">
<g id="Vector">
<path d="M10.0625 15.75H13.5625C13.804 15.75 14 15.554 14 15.3125C14 15.071 13.804 14.875 13.5625 14.875H10.0625C9.821 14.875 9.625 15.071 9.625 15.3125C9.625 15.554 9.821 15.75 10.0625 15.75ZM21 2.1875C21 2.772 20.7725 3.3215 20.3595 3.7345L17.5 6.594L16.625 7.469L14.4909 9.60313C13.9134 10.1815 13.1442 10.5 12.3253 10.5H10.9375C10.696 10.5 10.5 10.304 10.5 10.0625V8.67475C10.5 7.86887 10.8272 7.07963 11.3969 6.50913L17.0301 0.875875L17.2655 0.6405C17.6921 0.21391 18.2524 -2.76943e-05 18.8125 0C19.3726 2.76907e-05 19.9325 0.213965 20.3586 0.6405C20.7725 1.0535 21 1.603 21 2.1875ZM20.125 2.1875C20.125 1.83662 19.9885 1.50762 19.7409 1.25912C19.4748 0.992606 19.1212 0.864856 18.7712 0.875875C18.4491 0.886019 18.1299 1.01377 17.885 1.25912L12.0164 7.12775C11.6086 7.53463 11.3759 8.099 11.3759 8.67475V9.625H12.3261C12.9106 9.625 13.4601 9.3975 13.8731 8.9845L19.7418 3.11588C19.9894 2.86825 20.125 2.53837 20.125 2.1875ZM8.00275 13.2528L5.73738 15.5181C5.43638 15.8183 4.95862 15.8279 4.65063 15.5479L3.3635 14.3202C3.18938 14.154 2.91112 14.1592 2.74575 14.3351C2.57862 14.5092 2.58475 14.7866 2.76062 14.9529L4.05387 16.1866C4.37325 16.4806 4.77663 16.6259 5.17913 16.6259C5.60525 16.6259 6.03137 16.4622 6.35687 16.1367L8.62225 13.8714C8.79288 13.7007 8.79288 13.4234 8.62225 13.2528C8.45162 13.0821 8.17425 13.0821 8.00362 13.2528H8.00275ZM8.62138 8.87775C8.45075 8.70712 8.17338 8.70712 8.00275 8.87775L5.73738 11.1431C5.43638 11.4424 4.95862 11.4537 4.65063 11.1729L3.3635 9.94525C3.18938 9.77987 2.91112 9.78513 2.74575 9.96012C2.57862 10.1351 2.58475 10.4116 2.76062 10.5788L4.05387 11.8125C4.37325 12.1065 4.77663 12.2517 5.17913 12.2517C5.60525 12.2517 6.03137 12.0881 6.35687 11.7626L8.62225 9.49725C8.79288 9.32662 8.79288 9.04925 8.62225 8.87862L8.62138 8.87775ZM8.62138 4.50275C8.45075 4.33212 8.17338 4.33212 8.00275 4.50275L5.73738 6.76813C5.43638 7.06825 4.956 7.07875 4.6515 6.79787L3.36438 5.56938C3.1885 5.40312 2.91112 5.40925 2.74575 5.58425C2.57862 5.75925 2.58475 6.03575 2.75975 6.20288L4.05387 7.4375C4.37413 7.73063 4.77663 7.87588 5.17913 7.87588C5.60525 7.87588 6.03137 7.71225 6.35687 7.38675L8.62225 5.12138C8.79288 4.95075 8.79288 4.67338 8.62225 4.50275H8.62138Z" fill="#212020"/>
<path d="M17.5 17.0625V10.0625C17.5 9.821 17.304 9.625 17.0625 9.625C16.821 9.625 16.625 9.821 16.625 10.0625V17.0634C16.625 18.7521 15.2513 20.1259 13.5625 20.1259H3.9375C2.24875 20.1259 0.875 18.7521 0.875 17.0634V3.93837C0.875 2.24962 2.24875 0.875875 3.9375 0.875875H13.5625H17.0301L17.2655 0.6405C17.6921 0.21391 18.2524 -2.76943e-05 18.8125 0H13.5625H3.9375C1.76663 0 0 1.76663 0 3.9375V17.0625C0 19.2334 1.76663 21 3.9375 21H13.5625C15.7334 21 17.5 19.2334 17.5 17.0625Z" fill="#212020"/>
<path d="M16.625 10.0625C16.625 9.821 16.821 9.625 17.0625 9.625C17.304 9.625 17.5 9.821 17.5 10.0625V6.594L16.625 7.469V10.0625Z" fill="#212020"/>
</g>
</g>
<defs>
<clipPath id="clip0_9721_6770">
<rect width="21" height="21" fill="white"/>
</clipPath>
</defs>
</svg>
