<svg width="30" height="30" viewBox="0 0 30 30" fill="none" xmlns="http://www.w3.org/2000/svg">
<path d="M10.6249 0H5.62494C2.52372 0 0 2.52372 0 5.62494V10.6249C0 11.6586 0.841241 12.4999 1.87498 12.4999H10.6249C11.6586 12.4999 12.4999 11.6586 12.4999 10.6249V1.87498C12.4999 0.841241 11.6586 0 10.6249 0ZM11.2499 10.6249C11.2499 10.9699 10.9699 11.2499 10.6249 11.2499H1.87498C1.52998 11.2499 1.24999 10.9699 1.24999 10.6249V5.62494C1.24999 3.21247 3.21247 1.24999 5.62494 1.24999H10.6249C10.9699 1.24999 11.2499 1.52998 11.2499 1.87498V10.6249ZM16.8748 12.4999H25.6247C26.6585 12.4999 27.4997 11.6586 27.4997 10.6249V5.62494C27.4997 2.52372 24.976 0 21.8748 0H16.8748C15.8411 0 14.9998 0.841241 14.9998 1.87498V10.6249C14.9998 11.6586 15.8411 12.4999 16.8748 12.4999ZM16.2498 1.87498C16.2498 1.52998 16.5298 1.24999 16.8748 1.24999H21.8748C24.2872 1.24999 26.2497 3.21247 26.2497 5.62494V10.6249C26.2497 10.9699 25.9697 11.2499 25.6247 11.2499H16.8748C16.5298 11.2499 16.2498 10.9699 16.2498 10.6249V1.87498ZM10.6249 14.9998H1.87498C0.841241 14.9998 0 15.8411 0 16.8748V21.8748C0 24.976 2.52372 27.4997 5.62494 27.4997H10.6249C11.6586 27.4997 12.4999 26.6585 12.4999 25.6247V16.8748C12.4999 15.8411 11.6586 14.9998 10.6249 14.9998ZM11.2499 25.6247C11.2499 25.9697 10.9699 26.2497 10.6249 26.2497H5.62494C3.21247 26.2497 1.24999 24.2872 1.24999 21.8748V16.8748C1.24999 16.5298 1.52998 16.2498 1.87498 16.2498H10.6249C10.9699 16.2498 11.2499 16.5298 11.2499 16.8748V25.6247ZM29.8172 28.9322L26.0672 25.1822C26.9485 24.1047 27.4997 22.7473 27.4997 21.2498C27.4997 17.8036 24.696 14.9998 21.2498 14.9998C17.8036 14.9998 14.9998 17.8036 14.9998 21.2498C14.9998 24.696 17.8036 27.4997 21.2498 27.4997C22.7473 27.4997 24.1047 26.9485 25.1822 26.0672L28.9322 29.8172C29.0547 29.9397 29.2147 29.9997 29.3747 29.9997C29.5347 29.9997 29.6947 29.9384 29.8172 29.8172C30.0609 29.5734 30.0609 29.1759 29.8172 28.9322ZM21.2498 26.2497C18.4923 26.2497 16.2498 24.0072 16.2498 21.2498C16.2498 18.4923 18.4923 16.2498 21.2498 16.2498C24.0072 16.2498 26.2497 18.4923 26.2497 21.2498C26.2497 24.0072 24.0072 26.2497 21.2498 26.2497Z" fill="#212020"/>
</svg>
